Coordinates
version=1
nRows=29
nColumns=38
inDegrees=no

Units are S.I. units (second, meters, Newtons, ...)
If the header above contains a line with 'inDegrees', this indicates whether rotational values are in degrees (yes) or radians (no).

endheader
time	pelvis_tilt	pelvis_list	pelvis_rotation	pelvis_tx	pelvis_ty	pelvis_tz	hip_flexion_r	hip_adduction_r	hip_rotation_r	knee_angle_r	ankle_angle_r	subtalar_angle_r	mtp_angle_r	hip_flexion_l	hip_adduction_l	hip_rotation_l	knee_angle_l	ankle_angle_l	subtalar_angle_l	mtp_angle_l	lumbar_extension	lumbar_bending	lumbar_rotation	arm_flex_r	arm_add_r	arm_rot_r	elbow_flex_r	pro_sup_r	wrist_flex_r	wrist_dev_r	arm_flex_l	arm_add_l	arm_rot_l	elbow_flex_l	pro_sup_l	wrist_flex_l	wrist_dev_l
1.42	-0.241994	-0.167714	-0.0823172	1.13772	0.966015	-0.42185	1.04033	0.154606	-0.238213	-1.30157	0.476212	0.185332	0	-0.225249	-0.132914	-0.407906	-0.387144	0.0153106	0.415489	0	-0.00915867	0.236987	-0.188767	-1.03321	-0.21855	-0.296163	2.09374	1.62716	0	0	-0.14182	-0.254938	-0.0289208	2.37208	1.6706	0	0
1.43	-0.255135	-0.173843	-0.0894928	1.14	0.968647	-0.422837	1.03738	0.166718	-0.258321	-1.154	0.495142	0.242043	0	-0.248493	-0.126995	-0.378576	-0.381136	-0.0571565	0.398271	0	0.00851999	0.254997	-0.181549	-1.075	-0.206657	-0.3232	2.13288	1.61762	0	0	-0.122718	-0.268055	0.0109959	2.39056	1.6677	0	0
1.44	-0.262495	-0.175243	-0.0960319	1.14192	0.970826	-0.423665	1.02081	0.177046	-0.278132	-1.00264	0.513796	0.306868	0	-0.267702	-0.117526	-0.346494	-0.394497	-0.115012	0.392288	0	0.018311	0.266356	-0.171129	-1.10862	-0.192416	-0.34686	2.16655	1.60746	0	0	-0.104264	-0.284339	0.0484149	2.40152	1.66238	0	0
1.45	-0.26345	-0.1725	-0.101664	1.14349	0.972547	-0.424283	0.991469	0.185925	-0.29769	-0.851481	0.530024	0.376631	0	-0.283758	-0.105692	-0.314434	-0.427645	-0.156969	0.395057	0	0.0196218	0.271148	-0.15803	-1.13246	-0.177063	-0.366386	2.19408	1.59798	0	0	-0.0878411	-0.302547	0.0819752	2.40465	1.65341	0	0
1.46	-0.257969	-0.166494	-0.106153	1.14477	0.973776	-0.424675	0.951214	0.193466	-0.317036	-0.705642	0.541125	0.447457	0	-0.29705	-0.0930968	-0.285452	-0.480263	-0.183806	0.40189	0	0.0125957	0.270008	-0.142978	-1.14538	-0.162075	-0.381396	2.21503	1.59035	0	0	-0.0749139	-0.321225	0.110568	2.39984	1.64011	0	0
1.47	-0.246678	-0.158285	-0.109324	1.14579	0.974438	-0.424868	0.902927	0.199498	-0.336124	-0.571103	0.544181	0.514886	0	-0.307358	-0.0815833	-0.26228	-0.55135	-0.197747	0.406965	0	-0.00184592	0.264026	-0.12687	-1.1468	-0.149065	-0.391822	2.22917	1.58549	0	0	-0.0668821	-0.33883	0.133308	2.38714	1.62262	0	0
1.48	-0.230803	-0.149	-0.111102	1.14658	0.974415	-0.424909	0.850341	0.203651	-0.354644	-0.454313	0.536593	0.574017	0	-0.313905	-0.0729759	-0.246756	-0.639259	-0.20149	0.404709	0	-0.022125	0.254611	-0.110681	-1.13664	-0.139648	-0.397782	2.23644	1.5839	0	0	-0.0649135	-0.353872	0.149504	2.36672	1.60196	0	0
1.49	-0.211961	-0.139721	-0.111559	1.14711	0.973566	-0.424853	0.797685	0.205502	-0.371934	-0.361649	0.51683	0.619985	0	-0.315572	-0.0688085	-0.239443	-0.741721	-0.197327	0.390967	0	-0.046289	0.243308	-0.0952781	-1.11528	-0.13527	-0.399453	2.23691	1.58549	0	0	-0.0697654	-0.365068	0.158671	2.33887	1.57992	0	0
1.5	-0.191875	-0.131408	-0.110948	1.14735	0.971764	-0.424745	0.749178	0.204743	-0.387091	-0.298837	0.485258	0.648918	0	-0.311188	-0.0701113	-0.23959	-0.85591	-0.186728	0.363836	0	-0.0723833	0.231626	-0.0812177	-1.08342	-0.137023	-0.396983	2.23076	1.58964	0	0	-0.081637	-0.371479	0.160585	2.30394	1.55877	0	0
1.51	-0.172076	-0.124858	-0.109702	1.1472	0.968927	-0.424608	0.708461	0.201291	-0.399434	-0.270329	0.444806	0.659383	0	-0.299785	-0.0773245	-0.245405	-0.978592	-0.170365	0.324049	0	-0.0988035	0.220913	-0.0685727	-1.04196	-0.145492	-0.390496	2.21828	1.59521	0	0	-0.100091	-0.372588	0.155372	2.26232	1.54086	0	0
1.52	-0.153692	-0.120717	-0.10839	1.14656	0.965061	-0.424441	0.677975	0.195455	-0.40866	-0.278425	0.401038	0.653001	0	-0.280743	-0.0903528	-0.25449	-1.10634	-0.148405	0.274876	0	-0.124519	0.212301	-0.0568504	-0.991944	-0.16063	-0.380165	2.19991	1.60082	0	0	-0.124074	-0.368335	0.143594	2.21448	1.52824	0	0
1.53	-0.137378	-0.119501	-0.107612	1.14536	0.960272	-0.424229	0.658325	0.188166	-0.414522	-0.322064	0.361253	0.633778	0	-0.253797	-0.108719	-0.264315	-1.23578	-0.120844	0.221589	0	-0.149102	0.206699	-0.0450339	-0.93454	-0.181714	-0.366343	2.17632	1.6051	0	0	-0.152054	-0.359108	0.126309	2.16103	1.52221	0	0
1.54	-0.123353	-0.121576	-0.107862	1.14354	0.954774	-0.423949	0.647873	0.181039	-0.416268	-0.395874	0.332809	0.60652	0	-0.218952	-0.131681	-0.272543	-1.3637	-0.0877389	0.170422	0	-0.172576	0.204768	-0.0317773	-0.87111	-0.207389	-0.349671	2.14853	1.60703	0	0	-0.182266	-0.345728	0.105072	2.10287	1.52305	0	0
1.55	-0.111533	-0.127034	-0.109384	1.1411	0.948864	-0.423586	0.643066	0.175975	-0.412885	-0.490737	0.321552	0.575976	0	-0.176355	-0.158237	-0.277244	-1.48714	-0.0493736	0.127364	0	-0.195122	0.206786	-0.0157528	-0.803244	-0.235812	-0.331108	2.11801	1.60623	0	0	-0.213066	-0.329414	0.081814	2.04136	1.52994	0	0
1.56	-0.10171	-0.135464	-0.112059	1.13813	0.942897	-0.423145	0.639482	0.174324	-0.403885	-0.595889	0.331017	0.546779	0	-0.126158	-0.186965	-0.276958	-1.60333	-0.0063685	0.0968102	0	-0.216722	0.212412	0.00388659	-0.732719	-0.264924	-0.311806	2.08669	1.60303	0	0	-0.243357	-0.311744	0.0585765	1.97846	1.54103	0	0
1.57	-0.0937236	-0.145873	-0.115416	1.13481	0.937233	-0.422651	0.632717	0.176454	-0.389438	-0.70058	0.36159	0.52259	0	-0.0684748	-0.215996	-0.270822	-1.70968	0.0403146	0.0806124	0	-0.236913	0.220617	0.0272981	-0.661523	-0.292643	-0.293028	2.05693	1.59842	0	0	-0.272817	-0.294553	0.0372909	1.91677	1.55379	0	0
1.58	-0.0875794	-0.156756	-0.118753	1.13137	0.932196	-0.422146	0.619109	0.181621	-0.370364	-0.795433	0.41039	0.50567	0	-0.00342935	-0.243131	-0.258701	-1.80381	0.0894	0.077675	0	-0.254734	0.229783	0.0539684	-0.591842	-0.317033	-0.276064	2.03152	1.59394	0	0	-0.30193	-0.279773	0.0195576	1.8594	1.56539	0	0
1.59	-0.083466	-0.166304	-0.121327	1.1281	0.928044	-0.421667	0.596198	0.18816	-0.347973	-0.873337	0.471938	0.496871	0	0.0686885	-0.266068	-0.241255	-1.88362	0.13934	0.0841943	0	-0.268861	0.237925	0.0828996	-0.525924	-0.33647	-0.262074	2.01337	1.59134	0	0	-0.331845	-0.269198	0.00639998	1.80971	1.5733	0	0
1.6	-0.0816858	-0.172699	-0.122541	1.12523	0.924953	-0.42124	0.562869	0.193904	-0.323822	-0.929793	0.539238	0.49585	0	0.147237	-0.282736	-0.219919	-1.94737	0.188463	0.0946961	0	-0.27791	0.242999	0.112867	-0.465813	-0.34983	-0.251868	2.00519	1.59229	0	0	-0.364118	-0.26421	-0.00196429	1.77088	1.57578	0	0
1.61	-0.0825326	-0.174424	-0.122081	1.123	0.923024	-0.420862	0.519205	0.196681	-0.299513	-0.962748	0.604837	0.501379	0	0.231076	-0.291638	-0.196739	-1.99383	0.235176	0.103508	0	-0.280763	0.243215	0.142653	-0.413026	-0.356665	-0.245653	2.00901	1.59806	0	0	-0.400395	-0.265508	-0.00624883	1.74543	1.57236	0	0
1.62	-0.086168	-0.170503	-0.119958	1.12153	0.9223	-0.420513	0.46615	0.194735	-0.276555	-0.972103	0.66164	0.511664	0	0.31851	-0.292117	-0.174083	-2.0223	0.278197	0.106283	0	-0.276824	0.237307	0.171215	-0.368296	-0.357323	-0.242852	2.02578	1.60922	0	0	-0.442115	-0.272913	-0.00804393	1.73479	1.56378	0	0
1.63	-0.0925342	-0.160635	-0.116464	1.12092	0.922775	-0.42016	0.405125	0.187007	-0.256239	-0.959119	0.703408	0.52457	0	0.407351	-0.284423	-0.154261	-2.0326	0.316659	0.100918	0	-0.266138	0.224696	0.197753	-0.33149	-0.35294	-0.242069	2.0551	1.62558	0	0	-0.490284	-0.285304	-0.00956955	1.73904	1.55183	0	0
1.64	-0.101321	-0.145175	-0.112066	1.1212	0.924408	-0.419775	0.33772	0.17324	-0.239555	-0.92593	0.725125	0.537868	0	0.495079	-0.269625	-0.139185	-2.02507	0.350153	0.087924	0	-0.249363	0.20552	0.221717	-0.301722	-0.345289	-0.241275	2.09535	1.64612	0	0	-0.54535	-0.30072	-0.0132941	1.75692	1.53869	0	0
1.65	-0.111986	-0.125016	-0.107281	1.12235	0.927123	-0.419335	0.265533	0.153936	-0.227048	-0.875258	0.723277	0.549343	0	0.579074	-0.249366	-0.130153	-2.00041	0.378679	0.0701149	0	-0.227644	0.18052	0.242766	-0.277606	-0.336498	-0.238134	2.14386	1.66915	0	0	-0.607157	-0.31662	-0.0215245	1.78612	1.52649	0	0
1.66	-0.123827	-0.101392	-0.102572	1.12435	0.930806	-0.418825	0.190153	0.130193	-0.218734	-0.810346	0.696113	0.556959	0	0.656875	-0.22554	-0.127753	-1.95966	0.402525	0.0516968	0	-0.202433	0.15085	0.260712	-0.257562	-0.328701	-0.230428	2.19739	1.69257	0	0	-0.674955	-0.330256	-0.0360517	1.82372	1.51685	0	0
1.67	-0.136078	-0.0756761	-0.0982645	1.1271	0.935306	-0.418237	0.113235	0.103482	-0.214086	-0.735034	0.64385	0.559118	0	0.726425	-0.200001	-0.131944	-1.904	0.42222	0.0373094	0	-0.175297	0.117862	0.275481	-0.2401	-0.323729	-0.216456	2.25255	1.71405	0	0	-0.747437	-0.339082	-0.0579101	1.86666	1.5107	0	0
1.68	-0.14802	-0.049228	-0.0945199	1.13048	0.940428	-0.417563	0.0365894	0.0754054	-0.212096	-0.653859	0.568708	0.554953	0	0.786229	-0.174334	-0.142218	-1.83463	0.438503	0.0310287	0	-0.147748	0.0829472	0.287101	-0.224051	-0.3229	-0.195334	2.30615	1.73137	0	0	-0.822798	-0.341126	-0.0872627	1.91216	1.50834	0	0
1.69	-0.15907	-0.0232917	-0.0913417	1.13431	0.945946	-0.416802	-0.0377906	0.0475319	-0.211362	-0.572048	0.474805	0.544509	0	0.83541	-0.149726	-0.157806	-1.75272	0.452291	0.0356999	0	-0.121105	0.0474534	0.295698	-0.208745	-0.326927	-0.167159	2.35549	1.74255	0	0	-0.898794	-0.335265	-0.123409	1.9579	1.50961	0	0
1.7	-0.168821	0.00104355	-0.0886032	1.1384	0.951616	-0.415963	-0.107819	0.0212989	-0.210199	-0.495284	0.367813	0.528718	0	0.873639	-0.126902	-0.17784	-1.65925	0.464569	0.0524924	0	-0.0964398	0.0126653	0.301517	-0.194094	-0.335928	-0.133027	2.39849	1.7462	0	0	-0.972833	-0.321372	-0.164889	2.00209	1.51401	0	0
